<svg width="27" height="24" viewBox="0 0 27 24" fill="none" xmlns="http://www.w3.org/2000/svg">
<g clip-path="url(#clip0_2245_3552)">
<path d="M26.9906 11.9766C26.9906 12.8203 26.2875 13.4813 25.4906 13.4813H23.9906L24.0234 20.9906C24.0328 22.6547 22.6875 24.0047 21.0234 24.0047H6.00469C4.35 24.0047 3.00469 22.6594 3.00469 21.0047V13.4813H1.5C0.65625 13.4813 0 12.825 0 11.9766C0 11.5547 0.140625 11.1797 0.46875 10.8516L12.4875 0.375C12.8156 0.046875 13.1906 0 13.5187 0C13.8469 0 14.2219 0.09375 14.5031 0.328125L26.475 10.8516C26.85 11.1797 27.0375 11.5547 26.9906 11.9766ZM16.5 10.5C16.5 9.70435 16.1839 8.94129 15.6213 8.37868C15.0587 7.81607 14.2956 7.5 13.5 7.5C12.7044 7.5 11.9413 7.81607 11.3787 8.37868C10.8161 8.94129 10.5 9.70435 10.5 10.5C10.5 11.2956 10.8161 12.0587 11.3787 12.6213C11.9413 13.1839 12.7044 13.5 13.5 13.5C14.2956 13.5 15.0587 13.1839 15.6213 12.6213C16.1839 12.0587 16.5 11.2956 16.5 10.5ZM12 15C9.92813 15 8.25 16.6781 8.25 18.75C8.25 19.1625 8.5875 19.5 9 19.5H18C18.4125 19.5 18.75 19.1625 18.75 18.75C18.75 16.6781 17.0719 15 15 15H12Z" fill="#484747"/>
</g>
<defs>
<clipPath id="clip0_2245_3552">
<rect width="27" height="24" fill="white"/>
</clipPath>
</defs>
</svg>
