<svg width="24" height="24" viewBox="0 0 24 24" fill="none" xmlns="http://www.w3.org/2000/svg">
<g clip-path="url(#clip0_2245_3560)">
<path d="M15.3335 2.66663H4.66683C4.31321 2.66663 3.97407 2.8071 3.72402 3.05715C3.47397 3.3072 3.3335 3.64634 3.3335 3.99996V20C3.3335 20.3536 3.47397 20.6927 3.72402 20.9428C3.97407 21.1928 4.31321 21.3333 4.66683 21.3333H15.3335C15.6871 21.3333 16.0263 21.1928 16.2763 20.9428C16.5264 20.6927 16.6668 20.3536 16.6668 20V16H10.4202C10.2434 16 10.0738 15.9297 9.94876 15.8047C9.82373 15.6797 9.7535 15.5101 9.7535 15.3333C9.7535 15.1565 9.82373 14.9869 9.94876 14.8619C10.0738 14.7369 10.2434 14.6666 10.4202 14.6666H16.6668V3.99996C16.6668 3.64634 16.5264 3.3072 16.2763 3.05715C16.0263 2.8071 15.6871 2.66663 15.3335 2.66663Z" fill="#484747"/>
<path d="M18.7732 11.52C18.6456 11.4108 18.4816 11.3538 18.3138 11.3602C18.146 11.3667 17.9869 11.4363 17.8681 11.555C17.7494 11.6737 17.6798 11.8329 17.6734 12.0007C17.6669 12.1685 17.724 12.3325 17.8332 12.46L20.0865 14.6667H16.6665V16H20.0865L17.8332 18.3067C17.7634 18.3665 17.7067 18.44 17.6667 18.5227C17.6267 18.6054 17.6042 18.6955 17.6006 18.7873C17.5971 18.8792 17.6126 18.9707 17.6461 19.0563C17.6796 19.1418 17.7304 19.2195 17.7954 19.2845C17.8604 19.3494 17.9381 19.4003 18.0236 19.4338C18.1092 19.4673 18.2007 19.4828 18.2925 19.4792C18.3844 19.4757 18.4744 19.4532 18.5572 19.4132C18.6399 19.3732 18.7134 19.3165 18.7732 19.2467L22.6665 15.38L18.7732 11.52Z" fill="#484747"/>
</g>
<defs>
<clipPath id="clip0_2245_3560">
<rect width="24" height="24" fill="white"/>
</clipPath>
</defs>
</svg>
